<?xml version="1.0" encoding="utf-8"?>
<!-- Generator: Adobe Illustrator 26.2.1, SVG Export Plug-In . SVG Version: 6.00 Build 0)  -->
<svg version="1.1" id="Layer_1" xmlns="http://www.w3.org/2000/svg" xmlns:xlink="http://www.w3.org/1999/xlink" x="0px" y="0px"
	 viewBox="0 0 500 445" style="enable-background:new 0 0 500 445;" xml:space="preserve">
<style type="text/css">
	.st0{fill:#F5F5F5;}
	.st1{fill:#E6E6E6;}
	.st2{fill:#6A61FA;}
	.st3{opacity:0.4;enable-background:new    ;}
	.st4{fill:#FFFFFF;}
	.st5{fill:#37474F;}
	.st6{fill:#455A64;}
	.st7{fill:#263238;}
	.st8{fill:#E0E0E0;}
	.st9{opacity:0.2;enable-background:new    ;}
	.st10{fill:#FAFAFA;}
	.st11{fill:#EBEBEB;}
	.st12{opacity:0.5;enable-background:new    ;}
	.st13{opacity:0.6;enable-background:new    ;}
	.st14{opacity:0.7;enable-background:new    ;}
	.st15{fill:#FFA8A7;}
	.st16{fill:#F28F8F;}
	.st17{fill:#F0F0F0;}
	.st18{opacity:0.3;enable-background:new    ;}
	.st19{font-family:'Montserrat-Bold';}
	.st20{font-size:25.7999px;}
</style>
<g id="freepik--Floor--inject-2">
	<ellipse class="st0" cx="250" cy="336.5" rx="222.5" ry="128.5"/>
</g>
<g id="freepik--Shadows--inject-2">
	<ellipse class="st1" cx="95.6" cy="347.8" rx="24.6" ry="14.2"/>
	<path class="st1" d="M285.3,271.5L123.4,365c-1.9,1.1-2.6,3.5-1.6,5.4c0.4,0.7,0.9,1.2,1.6,1.6l95.1,54.9c4.9,2.8,10.9,2.8,15.7,0
		l161.9-93.5c1.9-1.1,2.6-3.5,1.6-5.4c-0.4-0.7-0.9-1.2-1.6-1.6L301,271.5C296.1,268.7,290.1,268.7,285.3,271.5z"/>
	<path class="st1" d="M236.6,272.4l-64.8,37.4c-4.1,2.4-5.5,7.6-3.1,11.7c0.8,1.3,1.8,2.4,3.1,3.1l32.6,18.8c4.4,2.5,9.8,2.5,14.2,0
		l64.8-37.4c4.1-2.4,5.5-7.6,3.1-11.7c-0.8-1.3-1.8-2.4-3.1-3.1l-32.6-18.8C246.5,269.9,241,269.9,236.6,272.4z"/>
</g>
<g id="freepik--Plant--inject-2">
	<path class="st2" d="M96.9,311c0,0-15.2-14.9-6.6-39.8c4.8-14,20.9-24.2,30.1-25.2c-3,3.6-5.5,7.7-7.2,12.1l-11.5,7.7l10.6-3.3
		l-2.3,9.1c0,0-9.9,6-11.3,7.3l10.6-2.8C109.4,276,108.6,301.7,96.9,311z"/>
	<path class="st3" d="M96.9,311c0,0-15.2-14.9-6.6-39.8c4.8-14,20.9-24.2,30.1-25.2c-3,3.6-5.5,7.7-7.2,12.1l-11.5,7.7l10.6-3.3
		l-2.3,9.1c0,0-9.9,6-11.3,7.3l10.6-2.8C109.4,276,108.6,301.7,96.9,311z"/>
	<path class="st4" d="M96.9,311c0,0-7.9-31.1,3.8-49.2C100.7,261.7,87,277.7,96.9,311z"/>
	<path class="st5" d="M114.3,315.2l-18.6-0.2h-0.2l-18.6,0.2c0,0-0.2,22.9,6.9,32.3l0,0c2,2.5,6.5,4.2,11.9,4.2s9.9-1.8,11.9-4.2
		C114.5,338.1,114.3,315.2,114.3,315.2z"/>
	<ellipse class="st6" cx="95.6" cy="315.2" rx="18.7" ry="10"/>
	<path class="st7" d="M95.6,312.5c6.4,0,11.9,2.1,13.8,4.9c0.5-0.7,0.7-1.4,0.8-2.3c0-4-6.5-7.2-14.6-7.2S81,311.2,81,315.2
		c0,0.8,0.3,1.6,0.7,2.3C83.7,314.6,89.1,312.5,95.6,312.5z"/>
	<ellipse class="st8" cx="95.6" cy="317.4" rx="13.8" ry="4.9"/>
	<path class="st2" d="M95.8,318.7c0,0-7.2-0.3-13.4-9.9c-2.6-4-3.8-6-3.8-6l10-0.8l-11.3-2.8l-5.3-8.1l9.3-0.7c0,0-7-2.4-11.9-2.5
		c0,0-8.6-15.2-11.2-17.4c13.2,0.8,25.5,6.9,34.1,16.9C106.6,304.2,97.9,319.1,95.8,318.7z"/>
	<path class="st4" d="M95.8,318.7c0,0,4.5-27.2-24.3-43.5C71.5,275.1,101.4,289.5,95.8,318.7z"/>
	<path class="st2" d="M95.8,318.7c0,0,6.5,0.4,13-7.6c2.7-3.3,4-5.1,4-5.1l-9-1.6l10.4-1.5l5.6-6.9l-8.4-1.5c0,0,6.5-1.5,11-1.1
		c0,0,9.2-12.9,11.7-14.7c-12-0.5-23.6,3.8-32.3,12.1C87.4,304.6,93.9,318.9,95.8,318.7z"/>
	<path class="st9" d="M95.8,318.7c0,0,6.5,0.4,13-7.6c2.7-3.3,4-5.1,4-5.1l-9-1.6l10.4-1.5l5.6-6.9l-8.4-1.5c0,0,6.5-1.5,11-1.1
		c0,0,9.2-12.9,11.7-14.7c-12-0.5-23.6,3.8-32.3,12.1C87.4,304.6,93.9,318.9,95.8,318.7z"/>
	<path class="st4" d="M95.8,318.7c0,0-1.5-24.9,26-37C121.8,281.7,93.5,291.8,95.8,318.7z"/>
</g>
<g id="freepik--Pictures--inject-2">
	<polygon class="st10" points="128.9,97.4 128.9,147.1 85.9,171.9 85.9,122.2 128.9,97.4 	"/>
	<path class="st8" d="M124.2,100.1v44.3l-38.4,22.1v-44.3L124.2,100.1 M126.6,96.1l-43,24.8v49.7l2.3,1.4l43-24.8V97.4L126.6,96.1
		L126.6,96.1z"/>
	<path class="st11" d="M126.6,101.4v44.3l-38.4,22.2v-44.3L126.6,101.4 M128.9,97.4l-43,24.8V172l43-24.8V97.4L128.9,97.4z"/>
	<polygon class="st8" points="122.6,135.7 90,154.5 99.7,129.5 106.3,137.4 113.1,127.7 	"/>
	<path class="st8" d="M111.3,120.1c-0.1,2.1-1.2,4-3,5.1c-1.6,0.9-3,0.2-3-1.7c0.1-2.1,1.2-4,3-5.1
		C110,117.4,111.3,118.2,111.3,120.1z"/>
	<polygon class="st10" points="143.3,35.5 143.3,75.1 109,94.9 109,55.3 143.3,35.5 	"/>
	<path class="st8" d="M139.6,37.7V73L109,90.6V55.3L139.6,37.7 M141.4,34.5l-34.3,19.8v39.6l1.9,1.1l34.3-19.8V35.5L141.4,34.5
		L141.4,34.5z"/>
	<path class="st11" d="M141.4,38.8v35.3l-30.6,17.6V56.4L141.4,38.8 M143.3,35.5L109,55.3v39.6l34.3-19.8L143.3,35.5L143.3,35.5z"/>
	<polygon class="st8" points="138.2,66.1 112.3,81 120,61.1 125.3,67.4 130.7,59.7 	"/>
	<path class="st8" d="M129.2,53.6c-0.1,1.7-1,3.2-2.4,4.1c-1.3,0.8-2.4,0.1-2.4-1.4c0.1-1.7,1-3.2,2.4-4.1
		C128.2,51.5,129.2,52.1,129.2,53.6z"/>
</g>
<g id="freepik--Character--inject-2">
	<path class="st7" d="M216.1,264.3l13.9,84.9c0.2,1.3,1.3,2.2,2.6,2.2l0,0c1.5,0,2.6-1.2,2.6-2.7c0-0.1,0-0.2,0-0.3l-9.8-87.6
		L216.1,264.3z"/>
	<path class="st7" d="M264.2,235.8l13.9,84.9c0.2,1.3,1.3,2.2,2.6,2.2l0,0c1.5,0,2.6-1.2,2.6-2.7c0-0.1,0-0.2,0-0.3l-9.8-87.6
		L264.2,235.8z"/>
	<path class="st7" d="M194.8,244.5l-13.7,73.1c-0.2,1.1-1.1,1.8-2.2,1.8c-1.2,0-2.2-1-2.2-2.2c0-0.1,0-0.2,0-0.3l10.1-67.8
		L194.8,244.5z"/>
	<path class="st7" d="M243.4,217.2l-13.6,72.7c-0.2,1.1-1.1,1.8-2.2,1.8c-1.2,0-2.2-1-2.2-2.2c0-0.1,0-0.2,0-0.3l10.1-67.4
		L243.4,217.2z"/>
	<path class="st2" d="M239.4,211.6c-6.4-2.8-10.8-8.9-11.5-15.9c-2.2-22.3-10.1-68.2-36.6-52.9c-32.8,18.9-21.1,73.6-16.3,91.2
		c1.1,4,3.1,7.6,6,10.5c5.9,6,18.2,16.3,39.1,25c2.6,1.1,5.4,1.2,8.1,0.5c10.4-3,37.5-12,51-29.3c1.6-2,1.2-5-0.8-6.6
		C272.9,229.8,260.5,221.1,239.4,211.6z"/>
	<path class="st12" d="M239.4,211.6c-6.4-2.8-10.8-8.9-11.5-15.9c-2.2-22.3-10.1-68.2-36.6-52.9c-32.8,18.9-21.1,73.6-16.3,91.2
		c1.1,4,3.1,7.6,6,10.5c5.9,6,18.2,16.3,39.1,25c2.6,1.1,5.4,1.2,8.1,0.5c10.4-3,37.5-12,51-29.3c1.6-2,1.2-5-0.8-6.6
		C272.9,229.8,260.5,221.1,239.4,211.6z"/>
	<path class="st2" d="M280.1,237.6c0.1,1.1-0.3,2.2-1,3.1c-0.7,0.9-1.5,1.8-2.3,2.7l0,0c-0.4,0.5-0.9,1-1.3,1.4l0,0
		c-0.5,0.5-0.9,0.9-1.4,1.4l0,0l-1.4,1.3l0,0c-0.5,0.4-1,0.9-1.5,1.3l0,0c-7.7,6.4-17,11.3-25.3,14.9l0,0l-1.5,0.6l-0.2,0.1
		l-1.4,0.6l-0.2,0.1l-1.3,0.5l-0.3,0.1l-1.2,0.5l-0.4,0.1l-1.1,0.4l-0.4,0.1l-1.1,0.4l-0.4,0.1l-1,0.3l-0.5,0.2l-0.9,0.3l-0.5,0.2
		l-0.8,0.2l-0.5,0.2l-0.7,0.2l-0.6,0.2l-0.6,0.2l-0.7,0.2l-0.4,0.1c-0.3,0.1-0.7,0.2-1,0.3c-2.7,0.8-5.5,0.6-8.1-0.5
		c-20.9-8.8-33.1-19-39.1-25c-2.9-2.9-4.9-6.5-6-10.5c-4.8-17.6-16.5-72.3,16.3-91.2c0.6-0.3,1.1-0.6,1.7-0.9l0.4-0.2
		c0.6-0.3,1.1-0.5,1.6-0.7l0.2-0.1c0.5-0.2,1-0.4,1.5-0.5l0.2-0.1c0.5-0.1,1.1-0.3,1.6-0.4h0.1c1-0.2,2.1-0.3,3.1-0.2h0.1
		c1,0,2,0.2,3,0.5l0,0c-5.2-2.3-11.6-2.2-18,1.4c-32.8,18.9-21.1,73.6-16.3,91.2l0.8,3c1.6,6.1,5.2,11.5,10.2,15.3l8.5,6.5l0,0
		c9.2,7,19.2,12.7,29.8,17.2c2.6,1.1,5.4,1.3,8.1,0.5c10.4-3,37.5-12,51-29.3c0.6-0.7,0.9-1.6,1-2.6l0,0V237.6L280.1,237.6z"/>
	<path class="st13" d="M280.1,237.6c0.1,1.1-0.3,2.2-1,3.1c-0.7,0.9-1.5,1.8-2.3,2.7l0,0c-0.4,0.5-0.9,1-1.3,1.4l0,0
		c-0.5,0.5-0.9,0.9-1.4,1.4l0,0l-1.4,1.3l0,0c-0.5,0.4-1,0.9-1.5,1.3l0,0c-7.7,6.4-17,11.3-25.3,14.9l0,0l-1.5,0.6l-0.2,0.1
		l-1.4,0.6l-0.2,0.1l-1.3,0.5l-0.3,0.1l-1.2,0.5l-0.4,0.1l-1.1,0.4l-0.4,0.1l-1.1,0.4l-0.4,0.1l-1,0.3l-0.5,0.2l-0.9,0.3l-0.5,0.2
		l-0.8,0.2l-0.5,0.2l-0.7,0.2l-0.6,0.2l-0.6,0.2l-0.7,0.2l-0.4,0.1c-0.3,0.1-0.7,0.2-1,0.3c-2.7,0.8-5.5,0.6-8.1-0.5
		c-20.9-8.8-33.1-19-39.1-25c-2.9-2.9-4.9-6.5-6-10.5c-4.8-17.6-16.5-72.3,16.3-91.2c0.6-0.3,1.1-0.6,1.7-0.9l0.4-0.2
		c0.6-0.3,1.1-0.5,1.6-0.7l0.2-0.1c0.5-0.2,1-0.4,1.5-0.5l0.2-0.1c0.5-0.1,1.1-0.3,1.6-0.4h0.1c1-0.2,2.1-0.3,3.1-0.2h0.1
		c1,0,2,0.2,3,0.5l0,0c-5.2-2.3-11.6-2.2-18,1.4c-32.8,18.9-21.1,73.6-16.3,91.2l0.8,3c1.6,6.1,5.2,11.5,10.2,15.3l8.5,6.5l0,0
		c9.2,7,19.2,12.7,29.8,17.2c2.6,1.1,5.4,1.3,8.1,0.5c10.4-3,37.5-12,51-29.3c0.6-0.7,0.9-1.6,1-2.6l0,0V237.6L280.1,237.6z"/>
	<path class="st2" d="M298.2,300.3c-2.2-14.3-5.1-37.1-6.8-50.6c-0.1-0.9-0.3-1.8-0.5-2.6c-1.7-7.5-6.5-14-13.2-17.9l-33.7-20
		l-22.9-12c0,0-6.1,17.6,1,28.4c5.9,9,31.8,20.1,39.6,23.8s7.9,4.8,7.7,9.8s-0.2,11.4,9.3,31.4c2.7,5.7,4.6,10,6,13.3
		C289.6,304.2,294.3,302.9,298.2,300.3z"/>
	<path class="st14" d="M298.2,300.3c-2.2-14.3-5.1-37.1-6.8-50.6c-0.2-1.3-0.4-2.6-0.8-3.9c-2-7-6.6-12.9-12.9-16.6l-33.7-20.1
		l-22.9-12c0,0-6.1,17.6,1,28.4c5.9,9,31.8,20.1,39.6,23.8s7.9,4.8,7.7,9.8s-0.2,11.4,9.3,31.4c2.7,5.7,4.6,10,6,13.3
		C289.6,304.2,294.3,302.9,298.2,300.3z"/>
	<path class="st15" d="M287.8,315.4c0,0.6,0.1,1.2,0.4,1.7c1.3,2.3,3.1,4.3,5.1,6c4.5,4.1,19.6,20.1,24.9,10.2
		c0,0-15.5-14.9-17.6-21c-1-3.9-1.8-8-2.3-12c-3.9,2.6-8.7,3.9-13.4,3.5C287.7,311,287.9,313.4,287.8,315.4z"/>
	<path class="st6" d="M304,314.4l-0.4-1.3c-0.4-1-1.4-1.5-2.4-1.2l-6.3,1.9c-0.8,0.3-1.4,1-1.4,1.9v0.6c0,0.6-0.5,1.1-1.1,1.1l0,0
		c-1.3,0-2.6-0.5-3.6-1.3l-0.9-0.7v-2.2l0,0c-1.2,0.8-1.8,2.1-1.8,3.4c0.1,1.5,0.1,3.3,0.1,4c-0.1,1.3-1.3,6.8,0.1,8.5
		s4.8,1.8,8.9,1.4s8.5,3.6,12.3,5.1s19.4,4.7,19.4-5.3c0-2.5-2.5-3.6-5-4.5s-11.4-4-13.7-5.9c-0.9-0.8-1.8-1.6-2.5-2.5
		C304.9,316.4,304.4,315.5,304,314.4z"/>
	<path class="st7" d="M307.5,335.6c-3.8-1.5-8.2-5.5-12.3-5.1s-7.4,0.2-8.9-1.4c-0.5-0.7-0.7-1.5-0.7-2.3c-0.1,1.5,0,3,0.7,3.7
		c1.5,1.6,4.8,1.8,8.9,1.4s8.5,3.6,12.3,5.1s19.4,4.7,19.4-5.3c0-0.1,0-0.3-0.1-0.4C325.8,340,311.1,337,307.5,335.6z"/>
	<path class="st2" d="M267.6,317.6c-2.2-14.3-5.1-37.1-6.8-50.6c-0.9-7.1-4.4-13.6-9.8-18.2l-40.4-34.3l-21.6-0.4
		c0,0-4.4,18,2.6,28.8c5.9,9,31.8,20.1,39.6,23.8s7.9,4.8,7.7,9.8s-0.2,11.4,9.3,31.4c2.7,5.8,4.6,10,5.9,13.3
		C259,321.5,263.7,320.2,267.6,317.6z"/>
	<path class="st14" d="M267.6,317.6c-2.2-14.3-5.1-37.1-6.8-50.6c-0.9-7.1-4.4-13.6-9.8-18.2l-40.4-34.3l-21.6-0.4
		c0,0-4.4,18,2.6,28.8c5.9,9,31.8,20.1,39.6,23.8s7.9,4.8,7.7,9.8s-0.2,11.4,9.3,31.4c2.7,5.8,4.6,10,5.9,13.3
		C259,321.5,263.7,320.2,267.6,317.6z"/>
	<path class="st15" d="M257.2,331.5c0,0.6-0.4,2.4,0.4,3c1.1,0.8,2.1,3.3,5.1,6c4.5,4.1,9.3-4.7,7.3-10.8c-1-4-1.8-8-2.3-12
		c-3.9,2.6-8.7,3.9-13.4,3.5C257.1,328.3,257.3,329.4,257.2,331.5z"/>
	<path class="st15" d="M230.5,139.5L230.5,139.5c6.4-1,12.6,2.7,14.6,8.9c1.4,4.3,2.3,8.7,2.7,13.2c1.2,13.9,1.5,20.8,1.5,20.8
		l13.9,6.3c0,0-7.5,0.4-7,11l-17.3-4.4L230.5,139.5z"/>
	<path class="st2" d="M249.9,174c-2.1-15-2.9-22.9-4.6-26.6c-2.5-5.7-8.6-9-14.7-7.9l5.2,41.2l0.7-0.1c4.6-0.5,9-2.4,12.5-5.5
		L249.9,174z"/>
	<path class="st9" d="M249.9,174c-2.1-15-2.9-22.9-4.6-26.6c-2.5-5.7-8.6-9-14.7-7.9l5.2,41.2l0.7-0.1c4.6-0.5,9-2.4,12.5-5.5
		L249.9,174z"/>
	<path class="st16" d="M249.4,182.4c-1.6,0.5-3,1.4-4.1,2.5c0,0,1.7-3.2,4-4.2L249.4,182.4z"/>
	<path class="st2" d="M197.1,151.7l15.6-7.5l12.8-4.4c0,0,10.3-3.3,12.9,10.4c2.2,11.2,2.4,54,2.4,54l-0.2,4.7c0,0-5.9,16.6-27.1,18
		s-25.3-7.6-25.3-7.6S186,162.7,197.1,151.7z"/>
	<path class="st7" d="M246.1,106c0,0,4.8,12.3-1.8,17.8s-4.3-16.4-4.3-16.4L246.1,106z"/>
	<path class="st6" d="M287.8,176.5L140,261.8v18.5l0,0v89.9l0,0c0,0.7,0.5,1.4,1.1,1.7c1.7,0.9,3.7,0.9,5.5,0
		c0.7-0.3,1.1-0.9,1.1-1.7l0,0v-85.4l80.1,46.2v90.7l0,0c0,0.7,0.5,1.4,1.1,1.7c1.7,0.9,3.7,0.9,5.5,0c0.7-0.3,1.1-0.9,1.1-1.7l0,0
		V331l136.2-78.6v86l0,0c0,0.7,0.5,1.4,1.1,1.6c1.7,0.9,3.7,0.9,5.5,0c0.7-0.3,1.1-0.9,1.1-1.7l0,0V229.4L287.8,176.5z"/>
	<path class="st6" d="M234.4,423.4c-1.7,0.9-3.7,0.9-5.5,0c-1.5-0.9-1.5-2.3,0-3.1c1.7-0.9,3.7-0.9,5.5,0
		C235.9,421.1,235.9,422.5,234.4,423.4z"/>
	<rect x="227.8" y="328.8" class="st5" width="7.7" height="93"/>
	<ellipse class="st6" cx="143.9" cy="370.3" rx="3.9" ry="2.2"/>
	<rect x="140" y="277.2" class="st7" width="7.7" height="93"/>
	<path class="st6" d="M378.4,340c-1.7,0.9-3.7,0.9-5.5,0c-1.5-0.9-1.5-2.3,0-3.1c1.7-0.9,3.7-0.9,5.5,0
		C379.9,337.7,379.9,339.1,378.4,340z"/>
	<rect x="371.8" y="245.4" class="st5" width="7.7" height="93"/>
	<path class="st6" d="M284,269.7c-1.5,0.8-3.4,0.8-4.9,0c-1.4-0.8-1.4-2,0-2.8c1.5-0.8,3.4-0.8,4.9,0
		C285.3,267.6,285.3,268.9,284,269.7z"/>
	<rect x="278" y="190.6" class="st6" width="6.9" height="77.6"/>
	<polygon class="st7" points="140,261.8 140,280.3 231.7,333.3 231.7,314.8 	"/>
	<polygon class="st5" points="379.5,229.4 231.7,314.8 231.7,333.3 379.5,247.9 	"/>
	<polygon class="st6" points="287.8,176.5 140,261.8 231.7,314.8 379.5,229.4 	"/>
	<polygon class="st11" points="213.7,234.1 247.3,253.5 303.2,221.2 269.6,201.4 	"/>
	<polygon class="st8" points="243.7,228.6 256.3,221.3 248.4,216.7 235.8,224 	"/>
	<polygon class="st8" points="248.7,248.6 231.7,238.6 264.9,218.5 	"/>
	<path class="st15" d="M258.2,186.3l13.5,6.3c4,1,8,2.2,11.9,3.7c0,0,9.4,3.8,9.8,6.3s-7,8.6-13.6,5.6c-1.7-0.9-3.6-1.6-5.5-2
		c-1.8-0.2-7-1-10.8-4.6l-15.7-4.1C247.9,197.5,247.1,187.8,258.2,186.3z"/>
	<path class="st15" d="M266.9,205c1.5,1.7,6,5.9,7,7.1s3.3-1.9-0.8-6.6c-3.5-1.3-6.7-3-9.7-5.3C264.5,201.9,265.7,203.5,266.9,205z"
		/>
	<rect x="212.7" y="124.8" class="st15" width="16" height="19.3"/>
	<path class="st16" d="M228.6,144.1c-6.6-2.5-11.9-7.5-14.6-14v-5.4h14.7L228.6,144.1z"/>
	<path class="st15" d="M234,99.3c0,0,14.5,1.8,11.2,26.6c-1.5,11.5-4.6,17.3-13.4,16.3c-10-1.1-23.9-8.9-21.7-28.6
		S234,99.3,234,99.3z"/>
	<polygon class="st16" points="234.8,121.4 234.3,130 239.4,128.8 	"/>
	<path class="st7" d="M227.2,120.6c-0.1,1,0.7,1.8,1.6,1.9c1,0.1,1.8-0.7,1.9-1.6s-0.7-1.8-1.6-1.9c0,0,0,0,0,0
		C228.1,119,227.3,119.7,227.2,120.6z"/>
	<path class="st7" d="M238.8,120.1c-0.1,1,0.7,1.8,1.6,1.9c1,0.1,1.8-0.7,1.9-1.6c0.1-1-0.7-1.8-1.6-1.9
		C239.7,118.4,238.8,119.2,238.8,120.1C238.8,120.1,238.8,120.1,238.8,120.1z"/>
	<path class="st7" d="M242.9,116.7l-3.3-2.2c0,0,1.4-1.3,2.6-0.4C243,114.8,243.2,115.8,242.9,116.7z"/>
	<path class="st7" d="M228.4,116.4l-3.6,1.8c0,0-0.4-1.8,0.9-2.5C226.8,115.3,227.8,115.6,228.4,116.4z"/>
	<path class="st16" d="M234.5,133.5c-2,0-3.9-0.6-5.5-1.9c0,0-0.6,2.9,1.9,3.6S234.5,133.5,234.5,133.5z"/>
	<path class="st7" d="M212.5,121.2c0,0,2.2,4.6,3.6,4.5s0-17.8,2.9-17.9s16.4,6.6,28.3-2.1c4.6-3.3,5.5-11.8,2.8-11
		s-6.5,3.2-11.5,2.9s-22.6-8.5-26.9,3c0,0-9.7-0.8-6.1,18.5c0.9,4.8,3.8,16.6,7.1,17.8L212.5,121.2z"/>
	<path class="st15" d="M213.3,125.5c0.1-1.5-0.2-2.9-0.8-4.2c-0.6-1.7-2.1-2.9-3.9-3c-4.5-0.1-5.1,4.2-5,5.7c0.2,4,3.4,8.4,9.5,8.6
		L213.3,125.5z"/>
	<path class="st15" d="M214.7,211.9l11.4,9.1c2,0.2,3.9,0.5,5.8,1c2.2,0.6,7.9,2.8,9.4,3.1s-0.4,3-4.4,2c0,0,8.3,5.7,8.2,8.2
		c-0.1,2.5-8.7,6.9-14.4,2.6c-1.5-1.2-3.1-2.3-4.9-3.1c-1.7-0.5-6.6-2.5-9.5-6.8l-10-5.2C206.3,222.9,203.4,211.1,214.7,211.9z"/>
	<path class="st15" d="M202.2,149.2c0,0,6.7,5.2,2.6,21.2s-6.3,29.9-6.3,29.9l16.2,11.5c-4.5,2-7.7,6.1-8.4,11
		c0,0-25.5-10-26.1-16.5s5.3-34.3,6.2-39.5S191.9,151.6,202.2,149.2z"/>
	<path class="st16" d="M198.5,200.4c-2-0.4-4.1-0.4-6.1,0.1c1.9-1,4.1-1.6,6.2-1.6L198.5,200.4z"/>
	<path class="st10" d="M311,184.1l-5.9,38.2c0,0,0,0,0,0.1L247,256.1c0,0-0.1,0-0.1,0c0,0,0,0,0-0.1l5.7-37.1c0.2-1.6,1.2-3,2.6-3.9
		l53.3-32.7c0.8-0.5,1.9-0.3,2.4,0.5C311,183.3,311.1,183.7,311,184.1z"/>
	<path class="st8" d="M247,256.1l-31-18c-1.5-0.8-2.3-2.4-2.4-4.1l0,0l33.6,19.4L247,256.1z"/>
	<path class="st8" d="M277.4,221c0,2.7,1.9,3.8,4.3,2.5c2.5-1.6,4.1-4.4,4.3-7.4c0-2.7-1.9-3.8-4.3-2.5
		C279.1,215.2,277.5,218,277.4,221z"/>
	<path class="st7" d="M213.2,106.2c0,0-2.6-3.9-1-5.2S215,103.8,213.2,106.2z"/>
	<path class="st7" d="M213.6,107c0,0-4.7-0.6-4.6-2.6S213,104.1,213.6,107z"/>
	<path class="st15" d="M212.7,144.1c0,0,3.4,9,11.3,7.9s4.6-7.9,4.6-7.9H212.7z"/>
	<path class="st2" d="M202.2,149.2c0,0,5.2,2.5,4.4,12.9s-4.9,31.5-4.9,31.5s-18.6,7.5-20.4-3.1c-0.4-2.8,4.2-28.2,8.2-33.6
		C192.5,152.8,197.1,150,202.2,149.2z"/>
	<path class="st9" d="M202.2,149.2c0,0,5.2,2.5,4.4,12.9s-4.9,31.5-4.9,31.5s-18.6,7.5-20.4-3.1c-0.4-2.8,4.2-28.2,8.2-33.6
		C192.5,152.8,197.1,150,202.2,149.2z"/>
	<path class="st6" d="M257.6,332c0.7,1.1,1.8,1.8,3,2.1c1.1,0.2-1.1-2.8,1.6-3.9s9-2.8,9.5-0.5l0.7,2.9c0.7,2.8,2,5.3,3.8,7.5
		c1.8,2.2,3.9,4.2,6.2,5.9c3.6,2.3,9.4,7.8,1.9,12.6s-16.7,0.7-18.5-4.6s-3.7-6.9-4.7-7.8c-2-1.4-3.5-3.5-4.1-5.9
		c-0.5-2.4-0.8-4.8-1-7.2c-0.1-1,0.4-2,1.2-2.5l0,0L257.6,332z"/>
	<path class="st7" d="M284.3,358.5c-7.5,4.7-16.7,0.7-18.5-4.6s-3.7-6.9-4.7-7.8c-1.7-1.2-3-2.9-3.8-4.9c0,0.1,0,0.3,0,0.4
		c0.3,4.6,3.1,5.7,4.1,6.6s2.5,2.4,4.4,7.7s11.3,8.7,18.8,4c3.6-2.3,4.1-4.8,3.3-7C288.1,354.9,287.2,356.8,284.3,358.5z"/>
	<path class="st2" d="M248.3,287.2L224.3,301l-30.2-17.4l24-13.8c0.6-0.4,1.4-0.4,2.1,0l28.1,16.2c0.3,0.2,0.4,0.6,0.2,1
		C248.5,287,248.4,287.1,248.3,287.2z"/>
	<path class="st14" d="M248.3,287.2L224.3,301l-30.2-17.4l24-13.8c0.6-0.4,1.4-0.4,2.1,0l28.1,16.2c0.3,0.2,0.4,0.6,0.2,1
		C248.5,287,248.4,287.1,248.3,287.2z"/>
	<path class="st4" d="M246.6,286.7l-22.3,12.9l-28.1-16.2l22.3-12.9c0.6-0.3,1.3-0.3,1.9,0l26.1,15.1c0.3,0.2,0.4,0.6,0.2,0.9
		C246.8,286.5,246.7,286.6,246.6,286.7z"/>
	<polygon class="st4" points="224.3,299.5 224.3,297 246.9,284 246.9,286.1 	"/>
	<polygon class="st8" points="224.3,299.5 224.3,297 196.2,280.8 196.2,283.3 	"/>
	<path class="st2" d="M248.3,283.2L224.3,297l-30.2-17.4l24-13.8c0.6-0.4,1.4-0.4,2.1,0l28.1,16.3c0.3,0.2,0.4,0.7,0.2,1
		C248.4,283.1,248.3,283.1,248.3,283.2z"/>
	<path class="st12" d="M248.3,283.2L224.3,297l-30.2-17.4l24-13.8c0.6-0.4,1.4-0.4,2.1,0l28.1,16.3c0.3,0.2,0.4,0.7,0.2,1
		C248.4,283.1,248.3,283.1,248.3,283.2z"/>
	<path class="st4" d="M221.2,299.2c-0.1,0.1-0.3,0.1-0.4,0c-0.2-0.1-0.3-0.3-0.3-0.5v-2.3c0-1,0.6-2,1.4-2.5l0.1-0.1
		c0.1-0.1,0.3,0,0.4,0.1c0,0,0,0.1,0,0.1c0,0.3,0.2,0.5,0.5,0.5s0.5-0.2,0.5-0.5c0-0.4-0.2-0.8-0.6-1c-0.4-0.2-0.8-0.2-1.2,0l-0.1,0
		c-1.2,0.7-1.9,2-1.9,3.4v2.3c0,0.5,0.3,1,0.8,1.3c0.2,0.1,0.5,0.2,0.7,0.2c0.3,0,0.6-0.1,0.8-0.2c0.1-0.1,0.2-0.2,0.2-0.3
		L221.2,299.2z"/>
	<path class="st4" d="M216.7,296.6c-0.1,0.1-0.3,0.1-0.4,0c-0.2-0.1-0.3-0.3-0.3-0.5v-2.3c0-1,0.6-2,1.4-2.5h0.1c0.1,0,0.2,0,0.3,0
		c0.1,0,0.1,0.1,0.1,0.2c0,0.3,0.2,0.5,0.5,0.5s0.5-0.2,0.5-0.5c0-0.4-0.2-0.8-0.6-1c-0.4-0.2-0.8-0.2-1.2,0l-0.1,0
		c-1.2,0.7-1.9,2-1.9,3.4v2.3c0,0.5,0.3,1,0.8,1.3c0.2,0.1,0.5,0.2,0.7,0.2c0.3,0,0.6-0.1,0.8-0.2c0.1-0.1,0.2-0.2,0.2-0.3
		L216.7,296.6z"/>
	<path class="st4" d="M212.3,294c-0.1,0.1-0.3,0.1-0.4,0c-0.2-0.1-0.3-0.3-0.3-0.5v-2.3c0-1,0.6-2,1.4-2.5l0.1,0c0.1,0,0.2,0,0.3,0
		c0.1,0,0.1,0.1,0.1,0.2c0,0.3,0.2,0.5,0.5,0.5s0.5-0.2,0.5-0.5c0-0.4-0.2-0.8-0.6-1c-0.4-0.2-0.8-0.2-1.2,0l-0.1,0
		c-1.2,0.7-1.9,2-1.9,3.4v2.3c0,0.5,0.3,1,0.8,1.3c0.2,0.1,0.5,0.2,0.7,0.2c0.3,0,0.6-0.1,0.8-0.2c0.1-0.1,0.2-0.2,0.2-0.3
		L212.3,294z"/>
	<path class="st4" d="M207.8,291.4c-0.1,0.1-0.3,0.1-0.4,0c-0.2-0.1-0.3-0.3-0.3-0.5v-2.3c0-1,0.6-2,1.4-2.5l0.1,0
		c0.1,0,0.2,0,0.3,0c0.1,0,0.1,0.1,0.1,0.2c0,0.3,0.2,0.5,0.5,0.5s0.5-0.2,0.5-0.5c0-0.4-0.2-0.8-0.6-1c-0.4-0.2-0.8-0.2-1.2,0
		l-0.1,0c-1.2,0.7-1.9,2-1.9,3.4v2.3c0,0.5,0.3,1,0.8,1.3c0.2,0.1,0.5,0.2,0.7,0.2c0.3,0,0.6-0.1,0.8-0.2c0.1-0.1,0.2-0.2,0.2-0.3
		L207.8,291.4z"/>
	<path class="st4" d="M203.3,288.9c-0.1,0.1-0.3,0.1-0.4,0c-0.2-0.1-0.3-0.3-0.3-0.5v-2.3c0-1,0.6-2,1.4-2.5h0.1c0.1,0,0.2,0,0.3,0
		c0.1,0,0.1,0.1,0.1,0.2c0,0.3,0.2,0.5,0.5,0.5s0.5-0.2,0.5-0.5c0-0.4-0.2-0.8-0.6-1c-0.4-0.2-0.8-0.2-1.2,0l-0.1,0
		c-1.2,0.7-1.9,2-1.9,3.4v2.3c0,0.5,0.3,1,0.8,1.3c0.2,0.1,0.5,0.2,0.7,0.2c0.3,0,0.6-0.1,0.8-0.2c0.1-0.1,0.2-0.2,0.2-0.3
		L203.3,288.9z"/>
	<path class="st4" d="M198.9,286.3c-0.1,0.1-0.3,0.1-0.4,0c-0.2-0.1-0.3-0.3-0.3-0.5v-2.3c0-1,0.6-2,1.4-2.5l0.1,0
		c0.1,0,0.2,0,0.3,0c0.1,0,0.1,0.1,0.1,0.2c0,0.3,0.2,0.5,0.5,0.5s0.5-0.2,0.5-0.5c0-0.7-0.6-1.2-1.3-1.2c-0.2,0-0.4,0.1-0.5,0.2
		l-0.1,0.1c-1.2,0.7-1.9,2-1.9,3.4v2.3c0,0.5,0.3,1,0.8,1.3c0.2,0.1,0.5,0.2,0.7,0.2c0.3,0,0.6-0.1,0.8-0.2c0.1-0.1,0.2-0.2,0.2-0.3
		L198.9,286.3z"/>
	<polygon class="st1" points="251.3,277 225.5,291.9 191.8,272.5 217.7,257.5 	"/>
	<polygon class="st10" points="252.8,276.5 225.8,289.2 193.9,267 220.9,254.3 	"/>
	<path class="st2" d="M192.5,236.8h-21.9l2,23.2l0,0c0.3,1.5,1.2,2.8,2.6,3.4c4,2,8.8,2,12.8,0c1.4-0.6,2.4-1.9,2.6-3.4l0,0
		L192.5,236.8z"/>
	<path class="st8" d="M193.9,235.5v-1.8h-0.4c-0.7-1.4-1.8-2.5-3.2-3.2c-4.8-2.8-12.7-2.8-17.5,0c-1.4,0.7-2.5,1.8-3.2,3.2h-0.4v1.9
		c0,1.8,1.2,3.6,3.6,5c4.8,2.8,12.7,2.8,17.5,0C192.7,239.1,193.9,237.3,193.9,235.5z"/>
	<path class="st11" d="M190.3,238.8c-4.8,2.8-12.7,2.8-17.5,0s-4.8-7.3,0-10.1s12.7-2.8,17.5,0S195.1,236,190.3,238.8z"/>
	<path class="st8" d="M191.4,233v-1.5h-0.4c-0.6-1.1-1.5-2-2.6-2.6c-4.4-2.2-9.6-2.2-14,0c-1.1,0.6-2,1.5-2.6,2.6h-0.4v1.5
		c0,1.5,1,2.9,2.9,4c4.4,2.2,9.6,2.2,14,0C190.5,235.9,191.4,234.5,191.4,233z"/>
	<path class="st0" d="M188.5,235.6c-4.4,2.2-9.6,2.2-14,0c-3.9-2.2-3.9-5.9,0-8.1c4.4-2.2,9.6-2.2,14,0
		C192.4,229.8,192.4,233.4,188.5,235.6z"/>
	<path class="st17" d="M186.9,234.5c-3.4,1.7-7.4,1.7-10.8,0c-2.9-1.7-3-4.3-0.3-6c0.1-0.1,0.2-0.1,0.3-0.2c0.7-0.4,1.4-0.7,2.1-0.9
		c2.9-0.8,6-0.5,8.7,0.9C189.9,230,189.9,232.7,186.9,234.5z"/>
	<path class="st8" d="M176.1,229.1c3.4-1.7,7.4-1.7,10.8,0c1.1,0.5,1.9,1.5,2.2,2.7c0.2-1.3-0.5-2.6-2.2-3.6
		c-3.4-1.7-7.4-1.7-10.8,0c-1.7,1-2.4,2.3-2.2,3.6C174.2,230.6,175,229.6,176.1,229.1z"/>
	<path class="st8" d="M180.2,229.4l-2.2,1.4l-2.2-1.6v-0.9c0.1-0.1,0.2-0.1,0.3-0.2c0.7-0.4,1.4-0.7,2.1-0.9v0.6L180.2,229.4z"/>
</g>
<g id="freepik--Screen--inject-2">
	<path class="st2" d="M440.9,93L316.4,21.1c-1.1-0.8-2.5-0.8-3.6,0l-4.3,3l2.9,3.6v100.4c0,3.7,2.2,8,5,9.5l123.2,71.2l0.2,3.9
		l4.5-3.1c1.1-1,1.6-2.4,1.5-3.9V102.5C445.9,98.8,443.6,94.5,440.9,93z"/>
	<path class="st18" d="M440.9,93L316.4,21.1c-1.1-0.8-2.5-0.8-3.6,0l-4.3,3l2.9,3.6v100.4c0,3.7,2.2,8,5,9.5l123.2,71.2l0.2,3.9
		l4.5-3.1c1.1-1,1.6-2.4,1.5-3.9V102.5C445.9,98.8,443.6,94.5,440.9,93z"/>
	<path class="st2" d="M436.6,212.4l-124.5-71.9c-2.8-1.6-5-5.9-5-9.5V27.8c0-3.7,2.2-5.4,5-3.8l124.5,71.9c2.8,1.6,5,5.9,5,9.5
		v103.2C441.6,212.3,439.4,214,436.6,212.4z"/>
	<path class="st2" d="M436.6,212.4l-124.5-71.9c-2.8-1.6-5-5.9-5-9.5V27.8c0-3.7,2.2-5.4,5-3.8l124.5,71.9c2.8,1.6,5,5.9,5,9.5
		v103.2C441.6,212.3,439.4,214,436.6,212.4z"/>
	<path class="st6" d="M436.6,95.9L312.1,24c-2.8-1.6-5,0.1-5,3.8v5l134.5,77.6v-5C441.6,101.7,439.4,97.5,436.6,95.9z"/>
	<path class="st2" d="M310.2,24.4L310.2,24.4c0.5,0,1,0.2,1.5,0.5l124.5,71.9c2.4,1.4,4.5,5.4,4.5,8.7v103.2c0,2-0.8,3.4-2,3.4
		c-0.5,0-1-0.2-1.5-0.5l-124.5-71.9c-2.4-1.4-4.5-5.4-4.5-8.7V27.8C308.2,25.7,308.9,24.4,310.2,24.4 M310.2,23.4
		c-1.8,0-3,1.6-3,4.4V131c0,3.7,2.2,7.9,5,9.5l124.5,71.9c0.6,0.4,1.3,0.6,2,0.6c1.8,0,3-1.6,3-4.4V105.4c0-3.7-2.2-8-5-9.5
		L312.1,24C311.5,23.6,310.8,23.4,310.2,23.4L310.2,23.4z"/>
	<path class="st4" d="M364.9,78c-0.2,0-0.4,0-0.5-0.1l-47.4-27.3c-0.5-0.3-0.6-1-0.3-1.5c0.3-0.4,0.9-0.6,1.3-0.4l47.4,27.4
		c0.5,0.3,0.7,0.9,0.5,1.4C365.7,77.9,365.3,78.1,364.9,78L364.9,78z"/>
	<path class="st4" d="M431.5,116.5c-0.2,0-0.4-0.1-0.5-0.1l-35.1-20.3c-0.5-0.3-0.7-0.9-0.4-1.4c0.3-0.5,0.9-0.7,1.4-0.4l35.1,20.3
		c0.5,0.3,0.7,0.9,0.5,1.4C432.3,116.4,431.9,116.6,431.5,116.5L431.5,116.5z"/>
	<path class="st4" d="M388.8,91.9c-0.2,0-0.4-0.1-0.5-0.1L374,83.5c-0.5-0.3-0.7-0.9-0.5-1.4s0.9-0.7,1.4-0.5c0,0,0.1,0,0.1,0.1
		l14.3,8.2c0.5,0.3,0.7,0.9,0.5,1.4C389.6,91.7,389.2,91.9,388.8,91.9L388.8,91.9z"/>
	<path class="st4" d="M364.9,144.4c-0.2,0-0.4,0-0.5-0.1l-47.4-27.4c-0.5-0.3-0.6-1-0.3-1.5c0.3-0.4,0.9-0.6,1.3-0.4l47.4,27.4
		c0.5,0.3,0.7,0.9,0.4,1.4C365.6,144.2,365.2,144.4,364.9,144.4z"/>
	<path class="st4" d="M431.5,182.9c-0.2,0-0.4,0-0.5-0.1l-35.1-20.3c-0.5-0.3-0.7-0.9-0.4-1.4c0.3-0.5,0.9-0.7,1.4-0.4l35.1,20.3
		c0.5,0.3,0.7,0.9,0.4,1.4C432.3,182.7,431.9,182.9,431.5,182.9z"/>
	<path class="st4" d="M388.8,158.2c-0.2,0-0.4,0-0.5-0.1l-14.3-8.2c-0.5-0.3-0.7-0.9-0.5-1.4s0.9-0.7,1.4-0.5c0,0,0.1,0,0.1,0.1
		l14.3,8.2c0.5,0.3,0.7,0.9,0.4,1.4C389.5,158,389.2,158.2,388.8,158.2z"/>
	<path class="st4" d="M364.9,160c-0.2,0-0.4,0-0.5-0.1l-47.4-27.4c-0.5-0.3-0.7-0.9-0.4-1.4c0.3-0.5,0.9-0.7,1.4-0.4l47.4,27.3
		c0.5,0.3,0.7,0.9,0.5,1.4C365.7,159.8,365.3,160,364.9,160L364.9,160z"/>
	<path class="st4" d="M416.6,189.9c-0.2,0-0.4,0-0.5-0.1l-20.2-11.6c-0.5-0.3-0.7-0.9-0.5-1.4s0.9-0.7,1.4-0.5c0,0,0.1,0,0.1,0.1
		l20.2,11.6c0.5,0.3,0.7,0.9,0.4,1.4c0,0,0,0,0,0C417.3,189.7,417,189.9,416.6,189.9z"/>
	<path class="st4" d="M388.8,173.9c-0.2,0-0.4-0.1-0.5-0.1l-14.3-8.2c-0.5-0.3-0.7-0.9-0.4-1.4c0.3-0.5,0.9-0.7,1.4-0.4l0,0
		l14.3,8.2c0.5,0.3,0.7,0.9,0.5,1.4C389.6,173.7,389.2,173.9,388.8,173.9L388.8,173.9z"/>
	<path class="st4" d="M341.2,72.7c-0.2,0-0.4-0.1-0.5-0.2l-23.8-13.7c-0.4-0.4-0.5-1.1-0.1-1.5c0.3-0.3,0.7-0.4,1.1-0.3l23.8,13.7
		c0.5,0.3,0.7,0.9,0.4,1.4C342,72.5,341.6,72.7,341.2,72.7z"/>
	<path class="st4" d="M409.7,112.2c-0.2,0-0.4-0.1-0.5-0.1L374,91.8c-0.5-0.3-0.7-0.9-0.5-1.4s0.9-0.7,1.4-0.5c0,0,0.1,0,0.1,0.1
		l35.1,20.3c0.5,0.3,0.7,0.9,0.5,1.4C410.4,112,410,112.2,409.7,112.2L409.7,112.2z"/>
	<path class="st4" d="M365.2,86.5c-0.2,0-0.4,0-0.5-0.1l-14.3-8.2c-0.5-0.3-0.7-0.9-0.4-1.4c0.3-0.5,0.9-0.7,1.4-0.4l0,0l14.3,8.2
		c0.5,0.3,0.7,0.9,0.4,1.4C365.9,86.3,365.6,86.5,365.2,86.5z"/>
	<path class="st4" d="M364.9,94.5c-0.2,0-0.4-0.1-0.5-0.2L316.9,67c-0.4-0.4-0.5-1-0.1-1.5c0.3-0.3,0.8-0.5,1.2-0.3l47.4,27.4
		c0.5,0.3,0.7,0.9,0.4,1.4C365.6,94.3,365.2,94.6,364.9,94.5z"/>
	<path class="st4" d="M405.8,118.2c-0.2,0-0.4,0-0.5-0.1l-9.4-5.4c-0.5-0.3-0.7-0.9-0.5-1.4s0.9-0.7,1.4-0.5c0,0,0.1,0,0.1,0.1
		l9.4,5.4c0.5,0.3,0.7,0.9,0.4,1.4C406.5,118,406.2,118.2,405.8,118.2z"/>
	<path class="st4" d="M345.9,91.8c-0.2,0-0.4-0.1-0.5-0.1l-9.4-5.4c-0.5-0.3-0.7-0.9-0.4-1.4c0.3-0.5,0.9-0.7,1.4-0.4l9.4,5.4
		c0.5,0.3,0.7,0.9,0.5,1.4C346.7,91.7,346.3,91.9,345.9,91.8L345.9,91.8z"/>
	<path class="st4" d="M388.8,108.4c-0.2,0-0.4-0.1-0.5-0.1L374,100c-0.5-0.3-0.7-0.9-0.4-1.4c0.3-0.5,0.9-0.7,1.4-0.4l0,0l14.3,8.2
		c0.5,0.3,0.7,0.9,0.5,1.4C389.6,108.2,389.2,108.4,388.8,108.4L388.8,108.4z"/>
	<path class="st4" d="M332.7,84.2c-0.2,0-0.4,0-0.5-0.1l-15.2-8.8c-0.5-0.3-0.6-1-0.3-1.5c0.3-0.4,0.9-0.6,1.3-0.4l15.2,8.8
		c0.5,0.2,0.8,0.9,0.5,1.4C333.5,84,333.1,84.3,332.7,84.2L332.7,84.2z"/>
	<path class="st4" d="M365.2,103c-0.2,0-0.4,0-0.5-0.1l-14.3-8.3c-0.5-0.3-0.7-0.9-0.5-1.4s0.9-0.7,1.4-0.5c0,0,0.1,0,0.1,0.1
		l14.3,8.2c0.5,0.3,0.7,0.9,0.5,1.4C366,102.8,365.6,103,365.2,103z"/>
	<path class="st4" d="M364.9,111.6c-0.2,0-0.4,0-0.5-0.1l-47.4-27.4c-0.5-0.3-0.6-1-0.3-1.5c0.3-0.4,0.9-0.6,1.3-0.4l47.4,27.4
		c0.5,0.3,0.7,0.9,0.4,1.4C365.6,111.4,365.2,111.6,364.9,111.6z"/>
	<path class="st4" d="M431.5,150.1c-0.2,0-0.4,0-0.5-0.1l-35.1-20.3c-0.5-0.3-0.7-0.9-0.4-1.4c0.3-0.5,0.9-0.7,1.4-0.4l35.1,20.3
		c0.5,0.3,0.7,0.9,0.4,1.4C432.3,149.9,431.9,150.1,431.5,150.1z"/>
	<path class="st4" d="M388.8,125.5c-0.2,0-0.4,0-0.5-0.1l-14.3-8.2c-0.5-0.3-0.7-0.9-0.5-1.4s0.9-0.7,1.4-0.5c0,0,0.1,0,0.1,0.1
		l14.3,8.2c0.5,0.3,0.7,0.9,0.4,1.4C389.5,125.3,389.2,125.4,388.8,125.5z"/>
	<path class="st4" d="M341.2,106.2c-0.2,0-0.4,0-0.5-0.1l-23.8-13.7c-0.5-0.3-0.7-0.9-0.4-1.4c0.3-0.5,0.9-0.7,1.4-0.4l23.8,13.7
		c0.5,0.3,0.7,0.9,0.5,1.4C342,106.1,341.6,106.3,341.2,106.2L341.2,106.2z"/>
	<path class="st4" d="M409.7,145.8c-0.2,0-0.4-0.1-0.5-0.1L374,125.3c-0.5-0.3-0.7-0.9-0.4-1.4c0.3-0.5,0.9-0.7,1.4-0.4l35.1,20.3
		c0.5,0.3,0.7,0.9,0.5,1.4C410.4,145.6,410,145.8,409.7,145.8L409.7,145.8z"/>
	<path class="st4" d="M365.2,120.1c-0.2,0-0.4-0.1-0.5-0.1l-14.3-8.2c-0.5-0.3-0.7-0.9-0.5-1.4s0.9-0.7,1.4-0.5c0,0,0.1,0,0.1,0.1
		l14.3,8.2c0.5,0.3,0.7,0.9,0.4,1.4C365.9,119.9,365.6,120.1,365.2,120.1z"/>
	<path class="st4" d="M364.9,128.1c-0.2,0-0.4,0-0.5-0.1l-47.4-27.4c-0.5-0.3-0.6-1-0.3-1.5c0.3-0.4,0.9-0.6,1.3-0.4l47.4,27.4
		c0.5,0.3,0.7,0.9,0.5,1.4C365.7,127.9,365.3,128.2,364.9,128.1L364.9,128.1z"/>
	<path class="st4" d="M405.8,151.8c-0.2,0-0.4-0.1-0.5-0.1l-9.4-5.4c-0.5-0.3-0.7-0.9-0.5-1.4s0.9-0.7,1.4-0.5c0,0,0.1,0,0.1,0.1
		l9.4,5.4c0.5,0.3,0.7,0.9,0.5,1.4C406.6,151.6,406.2,151.8,405.8,151.8L405.8,151.8z"/>
	<path class="st4" d="M345.9,125.4c-0.2,0-0.4-0.1-0.5-0.1l-9.4-5.4c-0.5-0.3-0.7-0.9-0.4-1.4c0.3-0.5,0.9-0.7,1.4-0.4l9.4,5.4
		c0.5,0.3,0.7,0.9,0.5,1.4C346.7,125.2,346.3,125.5,345.9,125.4L345.9,125.4z"/>
	<path class="st4" d="M388.8,142c-0.2,0-0.4-0.1-0.5-0.1l-14.3-8.3c-0.5-0.3-0.7-0.9-0.4-1.4c0.3-0.5,0.9-0.7,1.4-0.4l14.3,8.2
		c0.5,0.3,0.7,0.9,0.5,1.4C389.6,141.8,389.2,142,388.8,142z"/>
	<path class="st4" d="M332.7,117.8c-0.2,0-0.4,0-0.5-0.1l-15.2-8.8c-0.5-0.3-0.7-0.9-0.4-1.5s0.9-0.7,1.5-0.4l15.2,8.8
		c0.5,0.3,0.7,0.9,0.5,1.4C333.5,117.6,333.1,117.8,332.7,117.8L332.7,117.8z"/>
	<path class="st4" d="M365.2,136.6c-0.2,0-0.4,0-0.5-0.1l-14.3-8.2c-0.5-0.3-0.7-0.9-0.4-1.4c0.3-0.5,0.9-0.7,1.4-0.4l0,0l14.3,8.2
		c0.5,0.3,0.7,0.9,0.5,1.4C366,136.4,365.6,136.6,365.2,136.6L365.2,136.6z"/>
	<path class="st4" d="M345.9,141.2c-0.2,0-0.4,0-0.5-0.1l-9.4-5.4c-0.5-0.3-0.7-0.9-0.5-1.4s0.9-0.7,1.4-0.5c0,0,0.1,0,0.1,0.1
		l9.4,5.4c0.5,0.2,0.8,0.9,0.5,1.4C346.8,141.1,346.3,141.3,345.9,141.2L345.9,141.2z"/>
	<path class="st4" d="M332.7,133.6c-0.2,0-0.4-0.1-0.5-0.1l-15.2-8.8c-0.5-0.3-0.7-0.9-0.4-1.4c0.3-0.5,0.9-0.7,1.4-0.4l15.2,8.8
		c0.5,0.3,0.7,0.9,0.5,1.4C333.5,133.4,333.1,133.6,332.7,133.6L332.7,133.6z"/>
	<path class="st4" d="M365.2,152.4c-0.2,0-0.4-0.1-0.5-0.1l-14.3-8.2c-0.5-0.3-0.7-0.9-0.4-1.4c0.3-0.5,0.9-0.7,1.4-0.4l14.3,8.2
		c0.5,0.3,0.7,0.9,0.4,1.4C365.9,152.2,365.6,152.4,365.2,152.4z"/>
	<path class="st7" d="M326.9,60.8v38.3c0,0.6-0.2,1-0.6,1.2l0,0l-1.5,0.8v-1.3l-0.2-39.4l1.9-1C326.7,59.9,326.8,60.3,326.9,60.8z"
		/>
	<path class="st5" d="M326.5,59.4l-1.9,1l-46.5-27.3l-1.1-0.6l1.5-0.9h0l0,0c0.3-0.2,0.6-0.1,0.9,0.1l46,26.5
		C325.9,58.5,326.3,58.9,326.5,59.4z"/>
	<path class="st6" d="M325.2,61.7v38.1c0,0.4-0.1,0.8-0.4,1.1h-0.1c-0.3,0.1-0.6,0.1-0.9-0.1l-45.7-26.3c-0.9-0.6-1.4-1.6-1.4-2.6
		v-38c0-0.4,0.1-0.8,0.4-1.1c0,0,0.1-0.1,0.1-0.1c0.3-0.1,0.6-0.1,0.8,0.1L323.8,59c0.4,0.3,0.8,0.7,1,1.2
		C325,60.6,325.2,61.1,325.2,61.7z"/>
	<text transform="matrix(-0.87 -0.5 0 1 316.9503 86.3501)" class="st10 st19 st20">/</text>
	<path class="st5" d="M277.4,32.6c0.1,0,0.3,0,0.4,0.1l46,26.5c0.4,0.3,0.7,0.6,0.9,1.1c0.2,0.4,0.3,0.9,0.3,1.3V100
		c0,0.3-0.1,0.6-0.3,0.9h-0.1c-0.1,0-0.1,0-0.2,0c-0.1,0-0.3-0.1-0.4-0.1l-46-26.5c-0.8-0.6-1.2-1.5-1.3-2.4V33.6
		c0-0.3,0.1-0.6,0.3-0.9h0.1C277.2,32.7,277.3,32.7,277.4,32.6 M277.4,32.5c-0.1,0-0.2,0-0.3,0.1l-0.1,0.1c-0.3,0.3-0.5,0.7-0.4,1.1
		v38.2c0,1.1,0.5,2,1.4,2.7l46,26.5c0.2,0.1,0.3,0.2,0.5,0.2c0.1,0,0.2,0,0.3-0.1l0.1-0.1c0.3-0.3,0.5-0.7,0.4-1.1V61.7
		c0-0.5-0.1-1-0.4-1.4c-0.2-0.5-0.6-0.9-1-1.2l-46-26.5C277.8,32.4,277.6,32.4,277.4,32.5L277.4,32.5z"/>
	<path class="st4" d="M319.5,33.6c0,1.1-0.8,1.5-1.7,1c-1-0.7-1.7-1.8-1.7-3c0-1.1,0.8-1.5,1.7-1C318.8,31.3,319.4,32.4,319.5,33.6z
		"/>
	<path class="st4" d="M325.8,37.5c0,1.1-0.8,1.5-1.7,1c-1-0.7-1.7-1.8-1.7-3c0-1.1,0.8-1.5,1.7-1C325.1,35.2,325.8,36.3,325.8,37.5z
		"/>
	<path class="st4" d="M332.2,41.5c0,1.1-0.8,1.5-1.7,1c-1-0.7-1.7-1.8-1.7-3c0-1.1,0.8-1.5,1.7-1C331.5,39.1,332.1,40.3,332.2,41.5z
		"/>
</g>
</svg>
